<svg xmlns="http://www.w3.org/2000/svg" width="64" height="64" viewBox="0 0 64 64"><defs><linearGradient id="g" x1="0" y1="0" x2="1" y2="1"><stop offset="0" stop-color="#E11D74"/><stop offset="1" stop-color="#F4B400"/></linearGradient></defs><rect width="64" height="64" rx="14" fill="url(#g)"/><path d="M32 14c1.2 8 4 10.8 12 12-8 1.2-10.8 4-12 12-1.2-8-4-10.8-12-12 8-1.2 10.8-4 12-12z" fill="#fff"/><path d="M45 30c.6 4 2 5.4 6 6-4 .6-5.4 2-6 6-.6-4-2-5.4-6-6 4-.6 5.4-2 6-6z" fill="#fff" opacity="0.92"/></svg>